<?xml version="1.0" encoding="iso-8859-1"?>
<!-- Uploaded to: SVG Repo, www.svgrepo.com, Generator: SVG Repo Mixer Tools -->
<svg fill="#000000" height="800px" width="800px" version="1.1" id="Layer_1" xmlns="http://www.w3.org/2000/svg" xmlns:xlink="http://www.w3.org/1999/xlink" 
	 viewBox="0 0 512 512" xml:space="preserve">
<g>
	<g>
		<path d="M423.667,167.683C423.667,75.222,348.38,0,255.918,0S88.333,75.222,88.333,167.683
			c0,89.334,69.966,162.559,158.465,167.411v158.274h-27.947V512h74.526v-18.631H265.43V335.094
			C353.929,330.242,423.667,257.017,423.667,167.683z M255.853,316.735c-82.187,0-149.052-66.865-149.052-149.052
			c0-82.187,66.865-149.052,149.052-149.052c82.187,0,149.052,66.865,149.052,149.052S338.04,316.735,255.853,316.735z"/>
	</g>
</g>
<g>
	<g>
		<polygon points="349.271,158.002 276.413,158.002 325.018,109.58 311.974,96.497 265.43,143.264 265.43,74.161 246.798,74.161 
			246.798,149.851 193.405,96.588 180.165,109.58 228.706,158.002 162.956,158.002 162.956,176.634 231.434,176.634 180.1,228.15 
			193.405,241.415 246.798,188.243 246.798,260.475 265.43,260.475 265.43,194.831 311.974,241.506 325.083,228.15 273.685,176.634 
			349.271,176.634 		"/>
	</g>
</g>
</svg>