<?xml version="1.0" encoding="iso-8859-1"?>
<!-- Uploaded to: SVG Repo, www.svgrepo.com, Generator: SVG Repo Mixer Tools -->
<svg height="800px" width="800px" version="1.1" id="Layer_1" xmlns="http://www.w3.org/2000/svg" xmlns:xlink="http://www.w3.org/1999/xlink" 
	 viewBox="0 0 503.828 503.828" xml:space="preserve">
<g>
	<path style="fill:#2CD4E5;" d="M501.114,106.314c-1.6-2.4-4.8-3.2-8-2.4c-22.4,4-44,2.4-64-3.2c-20-10.4-44-16-68.8-16
		c-24,0-46.4,4.8-65.6,14.4c-27.2,8-59.2,8-86.4,0c-19.2-9.6-42.4-14.4-65.6-14.4c-24.8,0-48.8,5.6-68.8,16c-20,5.6-42.4,6.4-64,3.2
		c-3.2-0.8-5.6,0.8-8,2.4c-1.6,2.4-2.4,4.8-1.6,8l75.2,298.4c0.8,4,4,7.2,8,7.2h336c4,0,7.2-3.2,8-7.2l75.2-297.6
		C504.314,111.114,503.514,107.914,501.114,106.314z M419.514,411.114h-336l-68-269.6c6.4,0.8,12.8,0.8,20,0.8
		c15.2,0,28.8-2.4,41.6-5.6c17.6-9.6,40.8-15.2,65.6-15.2c24,0,45.6,5.6,63.2,14.4c13.6,4,29.6,7.2,46.4,7.2s32.8-2.4,46.4-7.2
		c17.6-8.8,39.2-14.4,62.4-14.4c24.8,0,48,5.6,65.6,15.2c12.8,3.2,27.2,5.6,41.6,5.6c6.4,0,13.6,0.8,20,0L419.514,411.114z"/>
	<circle style="fill:#2CD4E5;" cx="77.114" cy="175.914" r="17.6"/>
</g>
<path style="fill:#1DBED8;" d="M92.314,184.714c1.6-2.4,2.4-5.6,2.4-8c0-9.6-8-17.6-17.6-17.6c-6.4,0-11.2,3.2-14.4,8
	L92.314,184.714z"/>
<g>
	<circle style="fill:#2CD4E5;" cx="385.114" cy="170.314" r="11.2"/>
	<circle style="fill:#2CD4E5;" cx="354.714" cy="190.314" r="7.2"/>
	<circle style="fill:#2CD4E5;" cx="329.914" cy="156.714" r="13.6"/>
	<circle style="fill:#2CD4E5;" cx="130.714" cy="159.114" r="5.6"/>
	<circle style="fill:#2CD4E5;" cx="166.714" cy="174.314" r="4"/>
	<circle style="fill:#2CD4E5;" cx="162.714" cy="156.714" r="4"/>
</g>
<g>
	<polygon style="fill:#1DBED8;" points="419.514,411.114 311.514,411.114 319.514,419.114 410.714,419.114 	"/>
	<path style="fill:#1DBED8;" d="M431.514,396.714l72-283.2c0.8-2.4,0-5.6-1.6-8s-4.8-3.2-8-2.4c-22.4,4-44,2.4-64-3.2
		c-20-10.4-44-16-68.8-16c-24,0-46.4,4.8-65.6,14.4c-27.2,8-59.2,8-86.4,0c-19.2-9.6-42.4-14.4-65.6-14.4c-24.8,0-48.8,5.6-68.8,16
		c-20,5.6-42.4,6.4-64,3.2c-1.6,0-2.4,0-4,0l36.8,38.4c12-0.8,23.2-2.4,33.6-5.6c17.6-9.6,40.8-15.2,65.6-15.2
		c24,0,45.6,5.6,63.2,14.4c13.6,4,29.6,7.2,46.4,7.2s32.8-2.4,46.4-7.2c17.6-8.8,39.2-14.4,62.4-14.4c24.8,0,48,5.6,65.6,15.2
		c12.8,3.2,27.2,5.6,41.6,5.6c6.4,0,13.6-0.8,20-1.6l-67.2,268.8L431.514,396.714z"/>
	<circle style="fill:#1DBED8;" cx="162.714" cy="265.514" r="31.2"/>
</g>
<path style="fill:#15A1CC;" d="M140.314,243.114c12-12,32-12,44,0s12,32,0,44"/>
<circle style="fill:#1DBED8;" cx="251.514" cy="265.514" r="31.2"/>
<path style="fill:#15A1CC;" d="M229.114,243.114c12-12,32-12,44,0s12,32,0,44"/>
<circle style="fill:#1DBED8;" cx="340.314" cy="265.514" r="31.2"/>
<path style="fill:#15A1CC;" d="M317.914,243.114c12-12,32-12,44,0s12,32,0,44"/>
</svg>